<svg xmlns="http://www.w3.org/2000/svg" xmlns:xlink="http://www.w3.org/1999/xlink" width="1920" zoomAndPan="magnify" viewBox="0 0 1440 1439.999935" height="1920" preserveAspectRatio="xMidYMid meet" version="1.0"><defs><g/><clipPath id="048f530d3d"><path d="M 148.109375 608.507812 L 284 608.507812 L 284 839 L 148.109375 839 Z M 148.109375 608.507812 " clip-rule="nonzero"/></clipPath><clipPath id="c8c9b2e8ed"><path d="M 300 609 L 435.839844 609 L 435.839844 839.054688 L 300 839.054688 Z M 300 609 " clip-rule="nonzero"/></clipPath><clipPath id="af3869488d"><path d="M 1194 601.304688 L 1252 601.304688 L 1252 633 L 1194 633 Z M 1194 601.304688 " clip-rule="nonzero"/></clipPath><clipPath id="ba8a615c9d"><rect x="0" width="779" y="0" height="130"/></clipPath></defs><g clip-path="url(#048f530d3d)"><path fill="#0810a6" d="M 204.433594 838.019531 C 261.703125 822.59375 295.53125 760.59375 280.132812 698.574219 C 264.734375 636.5625 205.886719 597.765625 148.109375 611.152344 L 204.433594 838.03125 Z M 204.433594 838.019531 " fill-opacity="1" fill-rule="evenodd"/></g><g clip-path="url(#c8c9b2e8ed)"><path fill="#0810a6" d="M 379.511719 839.054688 C 322.246094 823.628906 288.414062 761.628906 303.8125 699.609375 C 319.210938 637.585938 378.058594 598.800781 435.835938 612.175781 Z M 379.511719 839.054688 " fill-opacity="1" fill-rule="evenodd"/></g><path fill="#0810a6" d="M 595.203125 647.828125 L 493.386719 647.828125 L 493.386719 800.394531 L 519.609375 800.394531 L 519.609375 742.183594 L 595.21875 742.183594 C 633.949219 742.183594 656.15625 724.988281 656.15625 695 C 656.15625 665.011719 633.949219 647.816406 595.21875 647.816406 Z M 519.609375 667.664062 L 590.835938 667.664062 C 616.796875 667.664062 629.410156 676.605469 629.410156 695 C 629.410156 713.398438 616.796875 722.351562 590.835938 722.351562 L 519.609375 722.351562 Z M 519.609375 667.664062 " fill-opacity="1" fill-rule="nonzero"/><path fill="#0810a6" d="M 785.042969 709.257812 L 725.597656 647.828125 L 691.761719 647.828125 L 771.417969 730.09375 L 771.417969 800.394531 L 797.640625 800.394531 L 797.640625 730.09375 L 877.296875 647.828125 L 844.488281 647.828125 Z M 785.042969 709.257812 " fill-opacity="1" fill-rule="nonzero"/><path fill="#0810a6" d="M 997.789062 712.644531 C 951.445312 709.941406 942.144531 702.371094 942.144531 691.03125 C 942.144531 675.285156 960.117188 665.898438 990.238281 665.898438 C 1014.660156 665.898438 1035.46875 671.222656 1052.0625 681.734375 L 1053.480469 682.632812 L 1065.261719 664.195312 L 1064.167969 663.507812 C 1044.734375 651.351562 1020.457031 645.179688 992.035156 645.179688 C 944.050781 645.179688 915.414062 662.574219 915.414062 691.691406 C 915.414062 720.808594 937.078125 731.53125 992.699219 734.683594 C 1033.273438 737.054688 1048.34375 742.921875 1048.34375 756.296875 C 1048.34375 777.804688 1018.980469 782.316406 994.34375 782.316406 C 966.902344 782.316406 941.128906 775.207031 921.730469 762.308594 L 920.347656 761.386719 L 907.722656 779.769531 L 908.78125 780.480469 C 930.441406 795.027344 960.722656 803.03125 994.0625 803.03125 C 1046.300781 803.03125 1075.058594 786.203125 1075.058594 755.636719 C 1075.058594 727.851562 1053.386719 715.796875 997.777344 712.644531 Z M 997.789062 712.644531 " fill-opacity="1" fill-rule="nonzero"/><g clip-path="url(#af3869488d)"><path fill="#0810a6" d="M 1251.742188 601.304688 L 1221.636719 601.304688 L 1194.660156 632.386719 L 1216.902344 632.386719 Z M 1251.742188 601.304688 " fill-opacity="1" fill-rule="nonzero"/></g><path fill="#0810a6" d="M 1291.835938 667.664062 L 1291.835938 647.828125 L 1136.28125 647.828125 L 1136.28125 800.394531 L 1291.835938 800.394531 L 1291.835938 780.5625 L 1162.5 780.5625 L 1162.5 733.140625 L 1275.117188 733.140625 L 1275.117188 713.304688 L 1162.5 713.304688 L 1162.5 667.664062 Z M 1291.835938 667.664062 " fill-opacity="1" fill-rule="nonzero"/><g transform="matrix(1, 0, 0, 1, 496, 812)"><g clip-path="url(#ba8a615c9d)"><g fill="#0810a6" fill-opacity="1"><g transform="translate(0.817743, 103.627263)"><g><path d="M 62.3125 -66.75 C 63.132812 -66.195312 63.613281 -65.488281 63.75 -64.625 C 63.894531 -63.769531 63.691406 -62.929688 63.140625 -62.109375 C 62.660156 -61.492188 62.039062 -61.148438 61.28125 -61.078125 C 60.53125 -61.003906 59.8125 -61.140625 59.125 -61.484375 C 56.507812 -63.203125 53.707031 -64.539062 50.71875 -65.5 C 47.738281 -66.46875 44.53125 -66.953125 41.09375 -66.953125 C 36.90625 -66.953125 33.007812 -66.210938 29.40625 -64.734375 C 25.800781 -63.253906 22.660156 -61.125 19.984375 -58.34375 C 17.304688 -55.5625 15.226562 -52.28125 13.75 -48.5 C 12.269531 -44.726562 11.53125 -40.578125 11.53125 -36.046875 C 11.53125 -31.378906 12.285156 -27.140625 13.796875 -23.328125 C 15.304688 -19.515625 17.414062 -16.234375 20.125 -13.484375 C 22.84375 -10.742188 25.988281 -8.648438 29.5625 -7.203125 C 33.132812 -5.765625 36.976562 -5.046875 41.09375 -5.046875 C 44.457031 -5.046875 47.632812 -5.523438 50.625 -6.484375 C 53.613281 -7.453125 56.410156 -8.757812 59.015625 -10.40625 C 59.703125 -10.8125 60.441406 -10.960938 61.234375 -10.859375 C 62.023438 -10.765625 62.660156 -10.375 63.140625 -9.6875 C 63.753906 -8.925781 63.972656 -8.113281 63.796875 -7.25 C 63.628906 -6.394531 63.171875 -5.726562 62.421875 -5.25 C 60.703125 -4.15625 58.675781 -3.125 56.34375 -2.15625 C 54.007812 -1.195312 51.535156 -0.425781 48.921875 0.15625 C 46.316406 0.738281 43.707031 1.03125 41.09375 1.03125 C 36.15625 1.03125 31.519531 0.140625 27.1875 -1.640625 C 22.863281 -3.429688 19.019531 -5.957031 15.65625 -9.21875 C 12.289062 -12.476562 9.660156 -16.375 7.765625 -20.90625 C 5.878906 -25.4375 4.9375 -30.484375 4.9375 -36.046875 C 4.9375 -41.398438 5.863281 -46.328125 7.71875 -50.828125 C 9.570312 -55.328125 12.144531 -59.222656 15.4375 -62.515625 C 18.738281 -65.816406 22.585938 -68.394531 26.984375 -70.25 C 31.378906 -72.101562 36.082031 -73.03125 41.09375 -73.03125 C 45.007812 -73.03125 48.785156 -72.476562 52.421875 -71.375 C 56.066406 -70.28125 59.363281 -68.738281 62.3125 -66.75 Z M 62.3125 -66.75 "/></g></g></g><g fill="#0810a6" fill-opacity="1"><g transform="translate(68.069913, 103.627263)"><g><path d="M 51.296875 -52.640625 C 52.191406 -52.640625 52.929688 -52.328125 53.515625 -51.703125 C 54.097656 -51.085938 54.390625 -50.332031 54.390625 -49.4375 L 54.390625 -3.09375 C 54.390625 -2.269531 54.078125 -1.546875 53.453125 -0.921875 C 52.835938 -0.304688 52.117188 0 51.296875 0 C 50.398438 0 49.660156 -0.304688 49.078125 -0.921875 C 48.492188 -1.546875 48.203125 -2.269531 48.203125 -3.09375 L 48.203125 -15.34375 L 49.953125 -16.171875 C 49.953125 -14.242188 49.421875 -12.285156 48.359375 -10.296875 C 47.296875 -8.304688 45.835938 -6.453125 43.984375 -4.734375 C 42.128906 -3.015625 39.945312 -1.625 37.4375 -0.5625 C 34.9375 0.5 32.242188 1.03125 29.359375 1.03125 C 24.679688 1.03125 20.503906 -0.171875 16.828125 -2.578125 C 13.160156 -4.984375 10.28125 -8.28125 8.1875 -12.46875 C 6.09375 -16.65625 5.046875 -21.359375 5.046875 -26.578125 C 5.046875 -31.929688 6.109375 -36.648438 8.234375 -40.734375 C 10.367188 -44.816406 13.253906 -48.023438 16.890625 -50.359375 C 20.523438 -52.703125 24.644531 -53.875 29.25 -53.875 C 32.207031 -53.875 34.972656 -53.359375 37.546875 -52.328125 C 40.117188 -51.296875 42.363281 -49.882812 44.28125 -48.09375 C 46.207031 -46.3125 47.703125 -44.269531 48.765625 -41.96875 C 49.828125 -39.664062 50.359375 -37.28125 50.359375 -34.8125 L 48.203125 -36.359375 L 48.203125 -49.4375 C 48.203125 -50.332031 48.492188 -51.085938 49.078125 -51.703125 C 49.660156 -52.328125 50.398438 -52.640625 51.296875 -52.640625 Z M 29.875 -4.734375 C 33.507812 -4.734375 36.734375 -5.675781 39.546875 -7.5625 C 42.367188 -9.457031 44.582031 -12.066406 46.1875 -15.390625 C 47.800781 -18.722656 48.609375 -22.453125 48.609375 -26.578125 C 48.609375 -30.628906 47.800781 -34.265625 46.1875 -37.484375 C 44.582031 -40.710938 42.367188 -43.285156 39.546875 -45.203125 C 36.734375 -47.128906 33.507812 -48.09375 29.875 -48.09375 C 26.300781 -48.09375 23.085938 -47.164062 20.234375 -45.3125 C 17.390625 -43.457031 15.160156 -40.914062 13.546875 -37.6875 C 11.929688 -34.46875 11.125 -30.765625 11.125 -26.578125 C 11.125 -22.453125 11.929688 -18.722656 13.546875 -15.390625 C 15.160156 -12.066406 17.375 -9.457031 20.1875 -7.5625 C 23 -5.675781 26.226562 -4.734375 29.875 -4.734375 Z M 29.875 -4.734375 "/></g></g></g><g fill="#0810a6" fill-opacity="1"><g transform="translate(130.481571, 103.627263)"><g><path d="M 33.171875 -53.046875 C 37.835938 -53.046875 41.972656 -51.894531 45.578125 -49.59375 C 49.179688 -47.289062 52.046875 -44.128906 54.171875 -40.109375 C 56.304688 -36.097656 57.375 -31.484375 57.375 -26.265625 C 57.375 -21.046875 56.304688 -16.410156 54.171875 -12.359375 C 52.046875 -8.304688 49.160156 -5.113281 45.515625 -2.78125 C 41.878906 -0.445312 37.796875 0.71875 33.265625 0.71875 C 30.859375 0.71875 28.570312 0.359375 26.40625 -0.359375 C 24.25 -1.078125 22.273438 -2.054688 20.484375 -3.296875 C 18.703125 -4.535156 17.125 -5.992188 15.75 -7.671875 C 14.382812 -9.359375 13.289062 -11.195312 12.46875 -13.1875 L 14.3125 -14.515625 L 14.3125 17.515625 C 14.3125 18.335938 14.019531 19.054688 13.4375 19.671875 C 12.851562 20.285156 12.117188 20.59375 11.234375 20.59375 C 10.335938 20.59375 9.597656 20.285156 9.015625 19.671875 C 8.429688 19.054688 8.140625 18.335938 8.140625 17.515625 L 8.140625 -49.640625 C 8.140625 -50.535156 8.410156 -51.289062 8.953125 -51.90625 C 9.503906 -52.53125 10.265625 -52.84375 11.234375 -52.84375 C 12.117188 -52.84375 12.851562 -52.53125 13.4375 -51.90625 C 14.019531 -51.289062 14.3125 -50.535156 14.3125 -49.640625 L 14.3125 -38.515625 L 12.875 -39.34375 C 13.5625 -41.46875 14.570312 -43.375 15.90625 -45.0625 C 17.25 -46.75 18.8125 -48.191406 20.59375 -49.390625 C 22.382812 -50.585938 24.34375 -51.492188 26.46875 -52.109375 C 28.59375 -52.734375 30.828125 -53.046875 33.171875 -53.046875 Z M 32.65625 -47.28125 C 28.945312 -47.28125 25.679688 -46.367188 22.859375 -44.546875 C 20.046875 -42.722656 17.832031 -40.25 16.21875 -37.125 C 14.601562 -34 13.796875 -30.378906 13.796875 -26.265625 C 13.796875 -22.210938 14.601562 -18.570312 16.21875 -15.34375 C 17.832031 -12.113281 20.046875 -9.585938 22.859375 -7.765625 C 25.679688 -5.953125 28.945312 -5.046875 32.65625 -5.046875 C 36.289062 -5.046875 39.5 -5.953125 42.28125 -7.765625 C 45.0625 -9.585938 47.273438 -12.113281 48.921875 -15.34375 C 50.566406 -18.570312 51.390625 -22.210938 51.390625 -26.265625 C 51.390625 -30.316406 50.566406 -33.921875 48.921875 -37.078125 C 47.273438 -40.234375 45.0625 -42.722656 42.28125 -44.546875 C 39.5 -46.367188 36.289062 -47.28125 32.65625 -47.28125 Z M 32.65625 -47.28125 "/></g></g></g><g fill="#0810a6" fill-opacity="1"><g transform="translate(192.893228, 103.627263)"><g><path d="M 14.109375 -3.09375 C 14.109375 -2.269531 13.796875 -1.546875 13.171875 -0.921875 C 12.554688 -0.304688 11.835938 0 11.015625 0 C 10.128906 0 9.394531 -0.304688 8.8125 -0.921875 C 8.226562 -1.546875 7.9375 -2.269531 7.9375 -3.09375 L 7.9375 -50.46875 C 7.9375 -51.289062 8.226562 -52.007812 8.8125 -52.625 C 9.394531 -53.25 10.128906 -53.5625 11.015625 -53.5625 C 11.910156 -53.5625 12.648438 -53.25 13.234375 -52.625 C 13.816406 -52.007812 14.109375 -51.289062 14.109375 -50.46875 Z M 11.015625 -60.453125 C 9.578125 -60.453125 8.5 -60.773438 7.78125 -61.421875 C 7.0625 -62.078125 6.703125 -63.023438 6.703125 -64.265625 L 6.703125 -65.296875 C 6.703125 -66.535156 7.09375 -67.476562 7.875 -68.125 C 8.664062 -68.78125 9.75 -69.109375 11.125 -69.109375 C 12.425781 -69.109375 13.4375 -68.78125 14.15625 -68.125 C 14.882812 -67.476562 15.25 -66.535156 15.25 -65.296875 L 15.25 -64.265625 C 15.25 -63.023438 14.882812 -62.078125 14.15625 -61.421875 C 13.4375 -60.773438 12.390625 -60.453125 11.015625 -60.453125 Z M 11.015625 -60.453125 "/></g></g></g><g fill="#0810a6" fill-opacity="1"><g transform="translate(214.932992, 103.627263)"><g><path d="M 4.734375 -52.421875 L 28.734375 -52.421875 C 29.554688 -52.421875 30.242188 -52.128906 30.796875 -51.546875 C 31.347656 -50.960938 31.625 -50.257812 31.625 -49.4375 C 31.625 -48.6875 31.347656 -48.035156 30.796875 -47.484375 C 30.242188 -46.929688 29.554688 -46.65625 28.734375 -46.65625 L 4.734375 -46.65625 C 3.910156 -46.65625 3.207031 -46.945312 2.625 -47.53125 C 2.039062 -48.113281 1.75 -48.785156 1.75 -49.546875 C 1.75 -50.367188 2.039062 -51.050781 2.625 -51.59375 C 3.207031 -52.144531 3.910156 -52.421875 4.734375 -52.421875 Z M 15.34375 -66.953125 C 16.238281 -66.953125 16.976562 -66.640625 17.5625 -66.015625 C 18.144531 -65.398438 18.4375 -64.679688 18.4375 -63.859375 L 18.4375 -12.15625 C 18.4375 -10.226562 18.691406 -8.785156 19.203125 -7.828125 C 19.722656 -6.867188 20.394531 -6.234375 21.21875 -5.921875 C 22.039062 -5.609375 22.863281 -5.453125 23.6875 -5.453125 C 24.238281 -5.453125 24.738281 -5.535156 25.1875 -5.703125 C 25.632812 -5.878906 26.128906 -5.96875 26.671875 -5.96875 C 27.296875 -5.96875 27.828125 -5.726562 28.265625 -5.25 C 28.710938 -4.769531 28.9375 -4.15625 28.9375 -3.40625 C 28.9375 -2.4375 28.382812 -1.625 27.28125 -0.96875 C 26.1875 -0.320312 24.882812 0 23.375 0 C 22.757812 0 21.832031 -0.0507812 20.59375 -0.15625 C 19.363281 -0.257812 18.09375 -0.632812 16.78125 -1.28125 C 15.476562 -1.9375 14.394531 -3.085938 13.53125 -4.734375 C 12.675781 -6.378906 12.25 -8.75 12.25 -11.84375 L 12.25 -63.859375 C 12.25 -64.679688 12.539062 -65.398438 13.125 -66.015625 C 13.71875 -66.640625 14.457031 -66.953125 15.34375 -66.953125 Z M 15.34375 -66.953125 "/></g></g></g><g fill="#0810a6" fill-opacity="1"><g transform="translate(249.846433, 103.627263)"><g><path d="M 51.296875 -52.640625 C 52.191406 -52.640625 52.929688 -52.328125 53.515625 -51.703125 C 54.097656 -51.085938 54.390625 -50.332031 54.390625 -49.4375 L 54.390625 -3.09375 C 54.390625 -2.269531 54.078125 -1.546875 53.453125 -0.921875 C 52.835938 -0.304688 52.117188 0 51.296875 0 C 50.398438 0 49.660156 -0.304688 49.078125 -0.921875 C 48.492188 -1.546875 48.203125 -2.269531 48.203125 -3.09375 L 48.203125 -15.34375 L 49.953125 -16.171875 C 49.953125 -14.242188 49.421875 -12.285156 48.359375 -10.296875 C 47.296875 -8.304688 45.835938 -6.453125 43.984375 -4.734375 C 42.128906 -3.015625 39.945312 -1.625 37.4375 -0.5625 C 34.9375 0.5 32.242188 1.03125 29.359375 1.03125 C 24.679688 1.03125 20.503906 -0.171875 16.828125 -2.578125 C 13.160156 -4.984375 10.28125 -8.28125 8.1875 -12.46875 C 6.09375 -16.65625 5.046875 -21.359375 5.046875 -26.578125 C 5.046875 -31.929688 6.109375 -36.648438 8.234375 -40.734375 C 10.367188 -44.816406 13.253906 -48.023438 16.890625 -50.359375 C 20.523438 -52.703125 24.644531 -53.875 29.25 -53.875 C 32.207031 -53.875 34.972656 -53.359375 37.546875 -52.328125 C 40.117188 -51.296875 42.363281 -49.882812 44.28125 -48.09375 C 46.207031 -46.3125 47.703125 -44.269531 48.765625 -41.96875 C 49.828125 -39.664062 50.359375 -37.28125 50.359375 -34.8125 L 48.203125 -36.359375 L 48.203125 -49.4375 C 48.203125 -50.332031 48.492188 -51.085938 49.078125 -51.703125 C 49.660156 -52.328125 50.398438 -52.640625 51.296875 -52.640625 Z M 29.875 -4.734375 C 33.507812 -4.734375 36.734375 -5.675781 39.546875 -7.5625 C 42.367188 -9.457031 44.582031 -12.066406 46.1875 -15.390625 C 47.800781 -18.722656 48.609375 -22.453125 48.609375 -26.578125 C 48.609375 -30.628906 47.800781 -34.265625 46.1875 -37.484375 C 44.582031 -40.710938 42.367188 -43.285156 39.546875 -45.203125 C 36.734375 -47.128906 33.507812 -48.09375 29.875 -48.09375 C 26.300781 -48.09375 23.085938 -47.164062 20.234375 -45.3125 C 17.390625 -43.457031 15.160156 -40.914062 13.546875 -37.6875 C 11.929688 -34.46875 11.125 -30.765625 11.125 -26.578125 C 11.125 -22.453125 11.929688 -18.722656 13.546875 -15.390625 C 15.160156 -12.066406 17.375 -9.457031 20.1875 -7.5625 C 23 -5.675781 26.226562 -4.734375 29.875 -4.734375 Z M 29.875 -4.734375 "/></g></g></g><g fill="#0810a6" fill-opacity="1"><g transform="translate(312.258105, 103.627263)"><g><path d="M 14.9375 -3.09375 C 14.9375 -2.269531 14.625 -1.546875 14 -0.921875 C 13.382812 -0.304688 12.664062 0 11.84375 0 C 10.945312 0 10.207031 -0.304688 9.625 -0.921875 C 9.039062 -1.546875 8.75 -2.269531 8.75 -3.09375 L 8.75 -73.125 C 8.75 -73.945312 9.054688 -74.664062 9.671875 -75.28125 C 10.296875 -75.90625 11.019531 -76.21875 11.84375 -76.21875 C 12.738281 -76.21875 13.476562 -75.90625 14.0625 -75.28125 C 14.644531 -74.664062 14.9375 -73.945312 14.9375 -73.125 Z M 14.9375 -3.09375 "/></g></g></g><g fill="#0810a6" fill-opacity="1"><g transform="translate(335.945702, 103.627263)"><g/></g></g><g fill="#0810a6" fill-opacity="1"><g transform="translate(364.061842, 103.627263)"><g><path d="M 33.78125 -64.171875 L 8.75 -1.953125 C 8.476562 -1.265625 8.101562 -0.75 7.625 -0.40625 C 7.144531 -0.0625 6.59375 0.109375 5.96875 0.109375 C 5.007812 0.109375 4.289062 -0.144531 3.8125 -0.65625 C 3.332031 -1.175781 3.054688 -1.816406 2.984375 -2.578125 C 2.921875 -2.921875 2.957031 -3.332031 3.09375 -3.8125 L 30.28125 -70.34375 C 30.625 -71.101562 31.050781 -71.632812 31.5625 -71.9375 C 32.082031 -72.25 32.6875 -72.40625 33.375 -72.40625 C 34.0625 -72.40625 34.660156 -72.21875 35.171875 -71.84375 C 35.691406 -71.46875 36.085938 -70.96875 36.359375 -70.34375 L 63.453125 -4.125 C 63.585938 -3.707031 63.65625 -3.296875 63.65625 -2.890625 C 63.65625 -1.921875 63.34375 -1.175781 62.71875 -0.65625 C 62.101562 -0.144531 61.382812 0.109375 60.5625 0.109375 C 59.875 0.109375 59.269531 -0.078125 58.75 -0.453125 C 58.238281 -0.835938 57.847656 -1.335938 57.578125 -1.953125 L 31.9375 -64.578125 Z M 14.734375 -20.8125 L 17.296875 -26.890625 L 49.234375 -26.890625 L 50.46875 -20.8125 Z M 14.734375 -20.8125 "/></g></g></g><g fill="#0810a6" fill-opacity="1"><g transform="translate(430.696058, 103.627263)"><g><path d="M 51.296875 -76.21875 C 52.191406 -76.21875 52.929688 -75.925781 53.515625 -75.34375 C 54.097656 -74.757812 54.390625 -74.019531 54.390625 -73.125 L 54.390625 -3.09375 C 54.390625 -2.269531 54.078125 -1.546875 53.453125 -0.921875 C 52.835938 -0.304688 52.117188 0 51.296875 0 C 50.398438 0 49.660156 -0.304688 49.078125 -0.921875 C 48.492188 -1.546875 48.203125 -2.269531 48.203125 -3.09375 L 48.203125 -15.34375 L 49.953125 -16.78125 C 49.953125 -14.863281 49.4375 -12.859375 48.40625 -10.765625 C 47.375 -8.671875 45.914062 -6.726562 44.03125 -4.9375 C 42.144531 -3.15625 39.945312 -1.710938 37.4375 -0.609375 C 34.9375 0.484375 32.242188 1.03125 29.359375 1.03125 C 24.753906 1.03125 20.613281 -0.171875 16.9375 -2.578125 C 13.269531 -4.984375 10.367188 -8.242188 8.234375 -12.359375 C 6.109375 -16.484375 5.046875 -21.1875 5.046875 -26.46875 C 5.046875 -31.6875 6.109375 -36.375 8.234375 -40.53125 C 10.367188 -44.6875 13.253906 -47.945312 16.890625 -50.3125 C 20.523438 -52.6875 24.644531 -53.875 29.25 -53.875 C 32.0625 -53.875 34.738281 -53.359375 37.28125 -52.328125 C 39.820312 -51.296875 42.070312 -49.882812 44.03125 -48.09375 C 45.988281 -46.3125 47.53125 -44.269531 48.65625 -41.96875 C 49.789062 -39.664062 50.359375 -37.28125 50.359375 -34.8125 L 48.203125 -36.359375 L 48.203125 -73.125 C 48.203125 -73.945312 48.492188 -74.664062 49.078125 -75.28125 C 49.660156 -75.90625 50.398438 -76.21875 51.296875 -76.21875 Z M 29.875 -4.734375 C 33.582031 -4.734375 36.828125 -5.675781 39.609375 -7.5625 C 42.390625 -9.457031 44.582031 -12.035156 46.1875 -15.296875 C 47.800781 -18.554688 48.609375 -22.28125 48.609375 -26.46875 C 48.609375 -30.59375 47.800781 -34.285156 46.1875 -37.546875 C 44.582031 -40.804688 42.367188 -43.378906 39.546875 -45.265625 C 36.734375 -47.148438 33.507812 -48.09375 29.875 -48.09375 C 26.300781 -48.09375 23.085938 -47.148438 20.234375 -45.265625 C 17.390625 -43.378906 15.160156 -40.804688 13.546875 -37.546875 C 11.929688 -34.285156 11.125 -30.59375 11.125 -26.46875 C 11.125 -22.351562 11.929688 -18.644531 13.546875 -15.34375 C 15.160156 -12.050781 17.390625 -9.457031 20.234375 -7.5625 C 23.085938 -5.675781 26.300781 -4.734375 29.875 -4.734375 Z M 29.875 -4.734375 "/></g></g></g><g fill="#0810a6" fill-opacity="1"><g transform="translate(493.10773, 103.627263)"><g><path d="M 6.90625 -53.765625 C 7.445312 -53.765625 7.992188 -53.59375 8.546875 -53.25 C 9.097656 -52.90625 9.507812 -52.390625 9.78125 -51.703125 L 27.8125 -8.859375 L 26.46875 -8.03125 L 44.90625 -51.703125 C 45.457031 -53.078125 46.453125 -53.726562 47.890625 -53.65625 C 48.578125 -53.65625 49.226562 -53.429688 49.84375 -52.984375 C 50.46875 -52.546875 50.78125 -51.914062 50.78125 -51.09375 C 50.78125 -50.675781 50.726562 -50.347656 50.625 -50.109375 C 50.519531 -49.867188 50.429688 -49.613281 50.359375 -49.34375 L 30.171875 -1.953125 C 29.628906 -0.722656 28.703125 -0.0703125 27.390625 0 C 26.773438 0.0703125 26.175781 -0.078125 25.59375 -0.453125 C 25.007812 -0.835938 24.582031 -1.335938 24.3125 -1.953125 L 4.015625 -49.34375 C 3.941406 -49.476562 3.867188 -49.679688 3.796875 -49.953125 C 3.734375 -50.222656 3.703125 -50.5 3.703125 -50.78125 C 3.703125 -51.53125 3.976562 -52.210938 4.53125 -52.828125 C 5.082031 -53.453125 5.875 -53.765625 6.90625 -53.765625 Z M 6.90625 -53.765625 "/></g></g></g><g fill="#0810a6" fill-opacity="1"><g transform="translate(547.589164, 103.627263)"><g><path d="M 14.109375 -3.09375 C 14.109375 -2.269531 13.796875 -1.546875 13.171875 -0.921875 C 12.554688 -0.304688 11.835938 0 11.015625 0 C 10.128906 0 9.394531 -0.304688 8.8125 -0.921875 C 8.226562 -1.546875 7.9375 -2.269531 7.9375 -3.09375 L 7.9375 -50.46875 C 7.9375 -51.289062 8.226562 -52.007812 8.8125 -52.625 C 9.394531 -53.25 10.128906 -53.5625 11.015625 -53.5625 C 11.910156 -53.5625 12.648438 -53.25 13.234375 -52.625 C 13.816406 -52.007812 14.109375 -51.289062 14.109375 -50.46875 Z M 11.015625 -60.453125 C 9.578125 -60.453125 8.5 -60.773438 7.78125 -61.421875 C 7.0625 -62.078125 6.703125 -63.023438 6.703125 -64.265625 L 6.703125 -65.296875 C 6.703125 -66.535156 7.09375 -67.476562 7.875 -68.125 C 8.664062 -68.78125 9.75 -69.109375 11.125 -69.109375 C 12.425781 -69.109375 13.4375 -68.78125 14.15625 -68.125 C 14.882812 -67.476562 15.25 -66.535156 15.25 -65.296875 L 15.25 -64.265625 C 15.25 -63.023438 14.882812 -62.078125 14.15625 -61.421875 C 13.4375 -60.773438 12.390625 -60.453125 11.015625 -60.453125 Z M 11.015625 -60.453125 "/></g></g></g><g fill="#0810a6" fill-opacity="1"><g transform="translate(569.628972, 103.627263)"><g><path d="M 5.15625 -8.34375 C 4.601562 -9.164062 4.34375 -9.972656 4.375 -10.765625 C 4.40625 -11.554688 4.835938 -12.191406 5.671875 -12.671875 C 6.210938 -13.148438 6.84375 -13.351562 7.5625 -13.28125 C 8.289062 -13.21875 8.960938 -12.875 9.578125 -12.25 C 11.429688 -9.851562 13.679688 -7.914062 16.328125 -6.4375 C 18.972656 -4.957031 22.113281 -4.21875 25.75 -4.21875 C 27.675781 -4.21875 29.582031 -4.546875 31.46875 -5.203125 C 33.351562 -5.859375 34.910156 -6.851562 36.140625 -8.1875 C 37.378906 -9.53125 38 -11.226562 38 -13.28125 C 38 -15.414062 37.378906 -17.132812 36.140625 -18.4375 C 34.910156 -19.738281 33.316406 -20.765625 31.359375 -21.515625 C 29.398438 -22.273438 27.320312 -22.929688 25.125 -23.484375 C 22.789062 -24.097656 20.523438 -24.800781 18.328125 -25.59375 C 16.128906 -26.382812 14.1875 -27.378906 12.5 -28.578125 C 10.820312 -29.785156 9.46875 -31.242188 8.4375 -32.953125 C 7.414062 -34.671875 6.90625 -36.769531 6.90625 -39.25 C 6.90625 -42.125 7.691406 -44.660156 9.265625 -46.859375 C 10.847656 -49.054688 12.992188 -50.773438 15.703125 -52.015625 C 18.421875 -53.253906 21.492188 -53.875 24.921875 -53.875 C 26.640625 -53.875 28.492188 -53.648438 30.484375 -53.203125 C 32.472656 -52.753906 34.429688 -52.015625 36.359375 -50.984375 C 38.285156 -49.953125 40.003906 -48.546875 41.515625 -46.765625 C 42.128906 -46.140625 42.4375 -45.429688 42.4375 -44.640625 C 42.4375 -43.859375 42.09375 -43.15625 41.40625 -42.53125 C 40.851562 -42.125 40.21875 -41.921875 39.5 -41.921875 C 38.78125 -41.921875 38.179688 -42.195312 37.703125 -42.75 C 36.046875 -44.601562 34.082031 -46.007812 31.8125 -46.96875 C 29.550781 -47.925781 27.117188 -48.40625 24.515625 -48.40625 C 22.523438 -48.40625 20.65625 -48.078125 18.90625 -47.421875 C 17.15625 -46.773438 15.691406 -45.796875 14.515625 -44.484375 C 13.347656 -43.179688 12.765625 -41.46875 12.765625 -39.34375 C 12.910156 -37.351562 13.613281 -35.738281 14.875 -34.5 C 16.144531 -33.269531 17.828125 -32.238281 19.921875 -31.40625 C 22.023438 -30.582031 24.378906 -29.832031 26.984375 -29.15625 C 29.179688 -28.601562 31.289062 -27.945312 33.3125 -27.1875 C 35.34375 -26.4375 37.128906 -25.492188 38.671875 -24.359375 C 40.222656 -23.222656 41.460938 -21.796875 42.390625 -20.078125 C 43.316406 -18.367188 43.78125 -16.207031 43.78125 -13.59375 C 43.78125 -10.570312 42.9375 -7.960938 41.25 -5.765625 C 39.570312 -3.566406 37.320312 -1.882812 34.5 -0.71875 C 31.6875 0.445312 28.5625 1.03125 25.125 1.03125 C 21.414062 1.03125 17.828125 0.3125 14.359375 -1.125 C 10.898438 -2.570312 7.832031 -4.976562 5.15625 -8.34375 Z M 5.15625 -8.34375 "/></g></g></g><g fill="#0810a6" fill-opacity="1"><g transform="translate(617.931073, 103.627263)"><g><path d="M 57.171875 -26.375 C 57.171875 -21.15625 56.035156 -16.46875 53.765625 -12.3125 C 51.492188 -8.15625 48.398438 -4.890625 44.484375 -2.515625 C 40.578125 -0.148438 36.117188 1.03125 31.109375 1.03125 C 26.234375 1.03125 21.820312 -0.148438 17.875 -2.515625 C 13.925781 -4.890625 10.800781 -8.15625 8.5 -12.3125 C 6.195312 -16.46875 5.046875 -21.15625 5.046875 -26.375 C 5.046875 -31.65625 6.195312 -36.351562 8.5 -40.46875 C 10.800781 -44.59375 13.925781 -47.859375 17.875 -50.265625 C 21.820312 -52.671875 26.234375 -53.875 31.109375 -53.875 C 36.117188 -53.875 40.578125 -52.671875 44.484375 -50.265625 C 48.398438 -47.859375 51.492188 -44.59375 53.765625 -40.46875 C 56.035156 -36.351562 57.171875 -31.65625 57.171875 -26.375 Z M 50.984375 -26.375 C 50.984375 -30.5625 50.125 -34.285156 48.40625 -37.546875 C 46.6875 -40.804688 44.332031 -43.378906 41.34375 -45.265625 C 38.363281 -47.148438 34.953125 -48.09375 31.109375 -48.09375 C 27.398438 -48.09375 24.035156 -47.148438 21.015625 -45.265625 C 17.992188 -43.378906 15.609375 -40.804688 13.859375 -37.546875 C 12.109375 -34.285156 11.234375 -30.5625 11.234375 -26.375 C 11.234375 -22.175781 12.109375 -18.460938 13.859375 -15.234375 C 15.609375 -12.015625 17.992188 -9.457031 21.015625 -7.5625 C 24.035156 -5.675781 27.398438 -4.734375 31.109375 -4.734375 C 34.953125 -4.734375 38.363281 -5.675781 41.34375 -7.5625 C 44.332031 -9.457031 46.6875 -12.015625 48.40625 -15.234375 C 50.125 -18.460938 50.984375 -22.175781 50.984375 -26.375 Z M 50.984375 -26.375 "/></g></g></g><g fill="#0810a6" fill-opacity="1"><g transform="translate(680.136746, 103.627263)"><g><path d="M 11.234375 0 C 10.265625 0 9.503906 -0.304688 8.953125 -0.921875 C 8.410156 -1.546875 8.140625 -2.269531 8.140625 -3.09375 L 8.140625 -49.234375 C 8.140625 -50.054688 8.429688 -50.773438 9.015625 -51.390625 C 9.597656 -52.015625 10.335938 -52.328125 11.234375 -52.328125 C 12.117188 -52.328125 12.851562 -52.015625 13.4375 -51.390625 C 14.019531 -50.773438 14.3125 -50.054688 14.3125 -49.234375 L 14.3125 -33.78125 L 12.765625 -33.46875 C 12.972656 -35.875 13.570312 -38.257812 14.5625 -40.625 C 15.5625 -43 16.921875 -45.179688 18.640625 -47.171875 C 20.359375 -49.160156 22.398438 -50.773438 24.765625 -52.015625 C 27.140625 -53.253906 29.800781 -53.875 32.75 -53.875 C 33.988281 -53.875 35.191406 -53.613281 36.359375 -53.09375 C 37.523438 -52.582031 38.109375 -51.742188 38.109375 -50.578125 C 38.109375 -49.546875 37.832031 -48.753906 37.28125 -48.203125 C 36.738281 -47.648438 36.085938 -47.375 35.328125 -47.375 C 34.710938 -47.375 34.039062 -47.546875 33.3125 -47.890625 C 32.59375 -48.234375 31.648438 -48.40625 30.484375 -48.40625 C 28.566406 -48.40625 26.644531 -47.835938 24.71875 -46.703125 C 22.800781 -45.578125 21.050781 -44.050781 19.46875 -42.125 C 17.882812 -40.207031 16.628906 -38.0625 15.703125 -35.6875 C 14.773438 -33.320312 14.3125 -30.9375 14.3125 -28.53125 L 14.3125 -3.09375 C 14.3125 -2.269531 14.003906 -1.546875 13.390625 -0.921875 C 12.773438 -0.304688 12.054688 0 11.234375 0 Z M 11.234375 0 "/></g></g></g><g fill="#0810a6" fill-opacity="1"><g transform="translate(719.7877, 103.627263)"><g><path d="M 47.375 -53.5625 C 48.269531 -53.5625 49.007812 -53.25 49.59375 -52.625 C 50.175781 -52.007812 50.46875 -51.289062 50.46875 -50.46875 L 50.46875 -5.046875 C 50.46875 0.515625 49.367188 5.203125 47.171875 9.015625 C 44.972656 12.828125 42.019531 15.707031 38.3125 17.65625 C 34.601562 19.613281 30.378906 20.59375 25.640625 20.59375 C 22.691406 20.59375 19.960938 20.265625 17.453125 19.609375 C 14.953125 18.960938 12.910156 18.125 11.328125 17.09375 C 10.503906 16.613281 9.882812 16.03125 9.46875 15.34375 C 9.0625 14.65625 9.03125 13.9375 9.375 13.1875 C 9.71875 12.21875 10.25 11.578125 10.96875 11.265625 C 11.6875 10.960938 12.425781 10.984375 13.1875 11.328125 C 14.351562 11.941406 16.035156 12.695312 18.234375 13.59375 C 20.429688 14.488281 22.9375 14.9375 25.75 14.9375 C 29.53125 14.9375 32.8125 14.144531 35.59375 12.5625 C 38.375 10.988281 40.519531 8.707031 42.03125 5.71875 C 43.539062 2.726562 44.296875 -0.820312 44.296875 -4.9375 L 44.296875 -12.359375 L 45.015625 -9.890625 C 43.984375 -7.753906 42.519531 -5.863281 40.625 -4.21875 C 38.738281 -2.570312 36.578125 -1.285156 34.140625 -0.359375 C 31.703125 0.566406 29.113281 1.03125 26.375 1.03125 C 22.25 1.03125 18.828125 0.191406 16.109375 -1.484375 C 13.398438 -3.171875 11.394531 -5.488281 10.09375 -8.4375 C 8.789062 -11.394531 8.140625 -14.863281 8.140625 -18.84375 L 8.140625 -50.46875 C 8.140625 -51.289062 8.410156 -52.007812 8.953125 -52.625 C 9.503906 -53.25 10.265625 -53.5625 11.234375 -53.5625 C 12.117188 -53.5625 12.851562 -53.25 13.4375 -52.625 C 14.019531 -52.007812 14.3125 -51.289062 14.3125 -50.46875 L 14.3125 -19.78125 C 14.3125 -14.96875 15.359375 -11.253906 17.453125 -8.640625 C 19.546875 -6.035156 22.960938 -4.734375 27.703125 -4.734375 C 30.660156 -4.734375 33.375 -5.4375 35.84375 -6.84375 C 38.3125 -8.257812 40.335938 -10.113281 41.921875 -12.40625 C 43.503906 -14.707031 44.296875 -17.164062 44.296875 -19.78125 L 44.296875 -50.46875 C 44.296875 -51.289062 44.585938 -52.007812 45.171875 -52.625 C 45.753906 -53.25 46.488281 -53.5625 47.375 -53.5625 Z M 47.375 -53.5625 "/></g></g></g></g></g></svg>